<svg xmlns="http://www.w3.org/2000/svg" version="1.1" xmlns:xlink="http://www.w3.org/1999/xlink" xmlns:svgjs="http://svgjs.com/svgjs" width="1067.37" height="37"><svg id="SvgjsSvg1000" data-name="Layer 1" xmlns="http://www.w3.org/2000/svg" viewBox="0 0 1067.37 556.12" height="37">
  <polyline points="11.14 304.86 94.7 513.1 186.3 12 1067.37 12" style="fill: none; stroke: #231f20; stroke-miterlimit: 10; stroke-width: 30px;"></polyline>
  <path d="m286.04,500.35c-13.38,0-19.26-5.89-19.26-19.26V134.34c0-13.38,5.89-19.26,19.26-19.26h178.19c80.27,0,105.42,36.39,105.42,89.36v24.62c0,29.97-7.49,51.37-29.97,61,39.06,4.28,64.75,32.64,64.75,77.59v113.44c0,13.38-5.89,19.26-19.26,19.26h-82.94c-13.38,0-19.26-5.89-19.26-19.26v-81.87c0-16.05-5.35-23.01-20.33-23.01h-74.92v104.88c0,13.38-5.89,19.26-19.26,19.26h-82.41Zm101.67-220.47h40.13c18.73,0,23.54-10.7,23.54-25.15v-18.19c0-14.45-4.82-25.15-23.54-25.15h-40.13v68.49Z" style="fill: #ed1c24;"></path>
  <path d="m943.16,496.82v-243.8l-94.93,181.55h-38.9l-94.93-181.55v243.8h-71.58V128.53h76.77l108.93,209.56,109.97-209.56h76.25v368.29h-71.58Z"></path>
</svg><style>@media (prefers-color-scheme: light) { :root { filter: none; } }
</style></svg>