<?xml version="1.0" encoding="UTF-8"?>
<svg id="Layer_1" data-name="Layer 1" xmlns="http://www.w3.org/2000/svg" viewBox="0 0 1198.71 260.9" width="190">
  <g>
    <path d="m154.93,183.76c-3.55,0-5.12-1.56-5.12-5.12v-92.09c0-3.55,1.56-5.12,5.12-5.12h47.33c21.32,0,28,9.66,28,23.73v6.54c0,7.96-1.99,13.64-7.96,16.2,10.38,1.14,17.2,8.67,17.2,20.61v30.13c0,3.55-1.56,5.12-5.12,5.12h-22.03c-3.55,0-5.12-1.56-5.12-5.12v-21.74c0-4.26-1.42-6.11-5.4-6.11h-19.9v27.86c0,3.55-1.56,5.12-5.12,5.12h-21.89Zm27-58.55h10.66c4.97,0,6.25-2.84,6.25-6.68v-4.83c0-3.84-1.28-6.68-6.25-6.68h-10.66v18.19Z" style="fill: #ed1c24;"/>
    <path d="m279.28,183.76h-20.89c-3.55,0-5.12-1.56-5.12-5.12v-37.52c0-5.68,1.71-12.79,5.54-22.74l12.36-32.26c1.14-3.27,3.41-4.69,7.25-4.69h38.23c3.7,0,5.97,1.42,7.11,4.69l12.36,32.26c3.84,9.95,5.54,17.05,5.54,22.74v37.52c0,3.55-1.56,5.12-5.12,5.12h-21.46c-3.84,0-5.54-1.56-5.54-5.12v-19.9h-25.16v19.9c0,3.55-1.56,5.12-5.12,5.12Zm6.54-50.88h22.31l-6.68-21.6c-.71-1.71-1.56-2.42-2.7-2.42h-3.55c-1.14,0-1.99.71-2.7,2.42l-6.68,21.6Z" style="fill: #ed1c24;"/>
    <path d="m361.72,183.76c-3.55,0-5.12-1.56-5.12-5.12v-16.63c0-3.55,1.56-5.12,5.12-5.12h38.23c2.42,0,3.7-1.85,3.7-4.12,0-3.27-1.28-4.55-3.7-4.83l-21.32-2.98c-13.36-1.99-22.03-7.67-22.03-23.59v-14.92c0-16.2,10.94-25.01,29.42-25.01h39.79c3.55,0,5.12,1.56,5.12,5.12v16.91c0,3.55-1.56,5.12-5.12,5.12h-33.11c-2.42,0-3.84,1.71-3.84,4.26s1.42,4.26,3.84,4.55l21.18,2.84c13.36,1.99,22.17,7.67,22.17,23.59v14.92c0,16.2-11.09,25.01-29.42,25.01h-44.91Z" style="fill: #ed1c24;"/>
    <path d="m456.65,183.76c-3.55,0-5.12-1.56-5.12-5.12v-92.09c0-3.55,1.56-5.12,5.12-5.12h43.49c25.87,0,33.54,11.23,33.54,27.71v18.19c0,16.49-7.67,27.71-33.54,27.71h-16.34v23.59c0,3.55-1.56,5.12-5.12,5.12h-22.03Zm26.86-54.29h12.79c5.54,0,6.68-3.27,6.68-6.96v-7.53c0-3.7-1.14-6.96-6.68-6.96h-12.79v21.46Z" style="fill: #ed1c24;"/>
    <path d="m553.58,183.76c-3.55,0-5.12-1.56-5.12-5.12v-92.09c0-3.55,1.56-5.12,5.12-5.12h65.94c3.55,0,5.12,1.56,5.12,5.12v16.63c0,3.55-1.56,5.12-5.12,5.12h-39.23v10.94h27.71c3.55,0,5.12,1.56,5.12,5.12v15.21c0,3.55-1.56,5.12-5.12,5.12h-27.71v12.22h39.23c3.55,0,5.12,1.56,5.12,5.12v16.63c0,3.55-1.56,5.12-5.12,5.12h-65.94Z" style="fill: #ed1c24;"/>
    <path d="m646.53,183.76c-3.55,0-5.12-1.56-5.12-5.12v-92.09c0-3.55,1.56-5.12,5.12-5.12h47.33c21.32,0,28,9.66,28,23.73v6.54c0,7.96-1.99,13.64-7.96,16.2,10.37,1.14,17.2,8.67,17.2,20.61v30.13c0,3.55-1.56,5.12-5.12,5.12h-22.03c-3.55,0-5.12-1.56-5.12-5.12v-21.74c0-4.26-1.42-6.11-5.4-6.11h-19.9v27.86c0,3.55-1.56,5.12-5.12,5.12h-21.89Zm27-58.55h10.66c4.97,0,6.25-2.84,6.25-6.68v-4.83c0-3.84-1.28-6.68-6.25-6.68h-10.66v18.19Z" style="fill: #ed1c24;"/>
  </g>
  <g>
    <path d="m830.25,179.18v-66.25l-27.36,50.17h-8.04l-27.48-50.17v66.25h-14.52v-92.05h15.56l30.47,56.27,30.47-56.27h15.56v92.05h-14.65Z"/>
    <path d="m856.18,179.18l37.08-92.05h11.93l36.95,92.05h-15.43l-9.85-25.02h-35.52l-9.59,25.02h-15.56Zm43.04-75.84l-15.3,40.06h30.08l-14.78-40.06Z"/>
    <path d="m1012.02,99.96h-30.6v79.21h-14.52v-79.21h-30.73v-12.83h75.84v12.83Z"/>
    <path d="m1100.17,87.13v92.05h-14.65v-40.58h-46.41v40.58h-14.52v-92.05h14.52v38.5h46.41v-38.5h14.65Z"/>
    <path d="m1175.5,108.78c-.87-.95-2.12-1.96-3.76-3.05-1.64-1.08-3.57-2.09-5.77-3.05-2.2-.95-4.65-1.73-7.33-2.33-2.68-.6-5.53-.91-8.56-.91-5.7,0-10.03,1.12-12.96,3.37-2.94,2.25-4.41,5.4-4.41,9.46,0,2.25.47,4.08,1.43,5.51.95,1.43,2.38,2.66,4.28,3.69,1.9,1.04,4.28,1.97,7.13,2.79,2.85.82,6.18,1.71,9.98,2.66,4.49,1.21,8.62,2.46,12.38,3.76,3.76,1.3,6.96,2.92,9.59,4.86,2.64,1.94,4.69,4.34,6.16,7.2,1.47,2.85,2.2,6.4,2.2,10.63,0,4.84-.91,8.95-2.72,12.32-1.82,3.37-4.26,6.12-7.33,8.23-3.07,2.12-6.63,3.67-10.7,4.67-4.06.99-8.38,1.49-12.96,1.49-7,0-13.79-1.06-20.35-3.18-6.57-2.12-12.49-5.21-17.76-9.27l6.74-12.45c1.12,1.12,2.72,2.38,4.8,3.76,2.07,1.38,4.52,2.66,7.33,3.82,2.81,1.17,5.9,2.16,9.27,2.98,3.37.82,6.87,1.23,10.5,1.23,5.53,0,9.83-1.02,12.9-3.05,3.07-2.03,4.6-4.99,4.6-8.88,0-2.33-.56-4.28-1.69-5.83-1.12-1.56-2.77-2.92-4.93-4.08-2.16-1.17-4.8-2.2-7.91-3.11-3.11-.91-6.66-1.88-10.63-2.92-4.58-1.21-8.58-2.48-11.99-3.82-3.42-1.34-6.25-2.96-8.49-4.86-2.25-1.9-3.95-4.13-5.12-6.68-1.17-2.55-1.75-5.64-1.75-9.27,0-4.49.84-8.49,2.53-11.99,1.68-3.5,4.02-6.44,7-8.82,2.98-2.38,6.5-4.17,10.57-5.38,4.06-1.21,8.43-1.81,13.09-1.81,6.4,0,12.21.99,17.44,2.98,5.23,1.99,9.83,4.45,13.81,7.39l-6.61,11.93Z"/>
  </g>
  <polyline points="5.26 124.55 70.25 243.11 112.71 6 1198.71 6" style="fill: none; stroke: #231f20; stroke-miterlimit: 10; stroke-width: 12px;"/>
</svg>